<?xml version="1.0" encoding="UTF-8"?>
<svg version="1.1" xmlns="http://www.w3.org/2000/svg" width="1024" height="1024">
<path d="M0 0 C337.92 0 675.84 0 1024 0 C1024 337.92 1024 675.84 1024 1024 C686.08 1024 348.16 1024 0 1024 C0 686.08 0 348.16 0 0 Z " fill="#FEF8EA" transform="translate(0,0)"/>
<path d="M0 0 C7.29587172 3.71946402 11.24505739 10.30619802 13.875 17.875 C14.68960432 20.48735178 15 22.22259161 15 25 C15.51304687 24.71125 16.02609375 24.4225 16.5546875 24.125 C25.81173211 19.63673595 36.78612174 19.16133624 46.6171875 22.0703125 C51.93134049 24.49547459 56.79359026 27.51432638 60.0859375 32.43359375 C62.07474492 38.01755306 61.40990278 44.17027151 61 50 C61.99 50 62.98 50 64 50 C64.20625 49.21625 64.4125 48.4325 64.625 47.625 C69.43481285 34.94458429 77.17946222 26.85420917 89.36328125 21.12890625 C97.22127181 17.76452214 106.87097721 17.66568213 114.875 20.84375 C122.17517332 24.81590313 127.05814667 30.30017269 130.203125 37.96875 C131.60248837 43.29181849 131.39014029 48.54670569 131 54 C132.155 53.9175 133.31 53.835 134.5 53.75 C140.20257974 53.78022569 144.37736151 55.77619593 148.6953125 59.4375 C155.79669813 66.86005383 157.57929505 76.03775514 157.40014648 86.01855469 C157.00304539 95.34987744 154.87635067 102.69509028 150.37890625 110.86328125 C149.43059937 112.5944519 149.43059937 112.5944519 148.46313477 114.3605957 C147.98030029 115.23159912 147.49746582 116.10260254 147 117 C148.50566528 117.00616333 148.50566528 117.00616333 150.04174805 117.01245117 C153.77891844 117.03428312 157.51504201 117.08861294 161.25170898 117.15258789 C162.86651549 117.17573286 164.48147221 117.19015543 166.09643555 117.19555664 C168.42331148 117.20487274 170.74783676 117.24591368 173.07421875 117.29296875 C174.15107185 117.28706978 174.15107185 117.28706978 175.24967957 117.28105164 C179.23196701 117.39603216 180.84856006 117.87185658 183.93286133 120.48168945 C184.61501709 121.31273193 185.29717285 122.14377441 186 123 C186.33 123.33 186.66 123.66 187 124 C187.41789467 130.45170712 186.2701329 135.83579286 184.4375 142 C184.1679248 142.91845703 183.89834961 143.83691406 183.62060547 144.78320312 C178.25542265 162.50092675 170.03573758 177.84730462 158 192 C157.40960937 192.73605469 156.81921875 193.47210938 156.2109375 194.23046875 C129.75162548 226.03793958 86.38078239 237.90471837 47 242 C35.21217071 243.07605595 23.45208671 243.18622883 11.62402344 243.18530273 C8.53306024 243.18747675 5.44246241 243.20566642 2.3515625 243.22460938 C-15.36338446 243.27516664 -33.16600979 242.45622984 -50.625 239.25 C-51.55973145 239.08153564 -52.49446289 238.91307129 -53.45751953 238.73950195 C-84.51918661 232.87264661 -111.83814744 220.83939768 -135 199 C-135.73863281 198.33742188 -136.47726562 197.67484375 -137.23828125 196.9921875 C-154.40407958 180.95451446 -170.56818856 151.79526861 -171.4375 127.8125 C-171 124 -171 124 -168.625 121.0625 C-164.50151869 117.82262183 -161.66120495 117.86552793 -156.5859375 117.90234375 C-155.49147812 117.90446617 -155.49147812 117.90446617 -154.37490845 117.90663147 C-152.04156415 117.91223469 -149.70831536 117.92478765 -147.375 117.9375 C-145.79427222 117.94251459 -144.21354293 117.94707757 -142.6328125 117.95117188 C-138.75517146 117.96220516 -134.87760193 117.97947189 -131 118 C-131.28222412 117.20005615 -131.56444824 116.4001123 -131.85522461 115.57592773 C-134.40968594 107.9102956 -135.68383905 101.13121518 -135.5625 93.0625 C-135.5471521 91.50390259 -135.5471521 91.50390259 -135.53149414 89.91381836 C-135.19419034 77.65335068 -131.99900068 66.79982763 -123 58 C-116.78813011 52.74825153 -109.26748204 49 -101 49 C-101.28875 48.33355469 -101.5775 47.66710937 -101.875 46.98046875 C-104.98243493 39.26582995 -106.63479362 32.43883261 -104.1875 24.296875 C-101.00768279 16.92146565 -96.0068726 13.5034363 -89 10 C-75.52916288 8.97284867 -66.62062999 11.1786887 -56.20703125 19.96875 C-53.4616515 22.49547119 -51.16922944 24.96307878 -49 28 C-49 28.66 -49 29.32 -49 30 C-48.34 30 -47.68 30 -47 30 C-47.0928125 28.71222656 -47.0928125 28.71222656 -47.1875 27.3984375 C-46.7193443 18.91311536 -40.45386645 10.3281054 -34.2890625 4.72265625 C-23.34349926 -3.51453384 -12.62178522 -5.69217765 0 0 Z " fill="#523725" transform="translate(504,270)"/>
<path d="M0 0 C0.9299176 -0.00073517 1.85983521 -0.00147034 2.81793213 -0.00222778 C17.61695383 0.0284769 31.46291131 1.05652236 45.6875 5.4375 C47.00282715 5.83098633 47.00282715 5.83098633 48.34472656 6.23242188 C63.12761994 10.75348277 76.57720869 17.31931259 89.875 25.125 C90.48706299 25.48126465 91.09912598 25.8375293 91.72973633 26.20458984 C95.58387304 28.53179832 98.83416755 30.93934666 101.6875 34.4375 C102.28683851 38.77593454 101.06625085 40.93462168 98.57421875 44.4296875 C97.9080957 45.37553711 97.24197266 46.32138672 96.55566406 47.29589844 C95.83604492 48.29137695 95.11642578 49.28685547 94.375 50.3125 C93.64893555 51.33375977 92.92287109 52.35501953 92.17480469 53.40722656 C90.0235195 56.42549014 87.85625642 59.43177825 85.6875 62.4375 C84.56295353 64.01762561 83.43916392 65.59829036 82.31640625 67.1796875 C81.35804287 68.51653781 80.3985084 69.85254981 79.4375 71.1875 C79.00912842 71.78804199 78.58075684 72.38858398 78.1394043 73.00732422 C73.9404035 78.74800749 73.9404035 78.74800749 70.6875 80.4375 C65.90772787 80.32999647 61.88445375 77.52682114 57.8125 75.25 C33.39952458 61.97225793 4.43686765 54.82115229 -23.171875 62.34765625 C-24.72648437 62.88712891 -24.72648437 62.88712891 -26.3125 63.4375 C-26.93447266 63.6526123 -27.55644531 63.86772461 -28.19726562 64.08935547 C-39.11603955 68.00448546 -47.62946226 73.83415936 -56.3125 81.4375 C-57.00859375 82.02144531 -57.7046875 82.60539063 -58.421875 83.20703125 C-72.16483207 95.65764602 -82.5193391 118.25928466 -83.47363281 136.52099609 C-83.8339556 166.03813601 -80.75945239 191.86674588 -59.4453125 214.30078125 C-58.74148438 215.00589844 -58.03765625 215.71101562 -57.3125 216.4375 C-56.77367187 216.98792969 -56.23484375 217.53835938 -55.6796875 218.10546875 C-39.55915857 233.21340164 -16.88399394 237.84265544 4.4375 237.75 C5.10013855 237.74817719 5.7627771 237.74635437 6.44549561 237.74447632 C21.91667641 237.6727488 34.73332354 235.41458823 48.6875 228.4375 C48.71277062 222.04712769 48.73033317 215.65676817 48.74243164 209.26635742 C48.74747308 207.09057127 48.75430607 204.91478853 48.76293945 202.73901367 C48.77501338 199.61896933 48.78073005 196.49896962 48.78515625 193.37890625 C48.79031754 192.39974747 48.79547882 191.42058868 48.80079651 190.41175842 C48.80087204 189.51090012 48.80094757 188.61004181 48.80102539 187.68188477 C48.803246 186.88468521 48.80546661 186.08748566 48.80775452 185.26612854 C48.88800456 183.41827719 48.88800456 183.41827719 47.6875 182.4375 C39.79454052 181.56874285 31.82514889 181.37354666 23.890625 181.2265625 C23.15598022 181.21220154 22.42133545 181.19784058 21.66442871 181.18304443 C18.64840231 181.12579479 15.63259785 181.07039552 12.61621094 181.03613281 C10.37389438 181.00866041 8.13256356 180.96292389 5.890625 180.9140625 C4.57739258 180.89424316 3.26416016 180.87442383 1.91113281 180.85400391 C-1.3125 180.4375 -1.3125 180.4375 -2.98872375 179.18597412 C-4.65249463 176.98842728 -4.69752694 175.7838829 -4.71655273 173.04541016 C-4.73557899 171.71855698 -4.73557899 171.71855698 -4.75498962 170.36489868 C-4.75205399 169.41174774 -4.74911835 168.4585968 -4.74609375 167.4765625 C-4.7513356 166.49384369 -4.75657745 165.51112488 -4.76197815 164.49862671 C-4.76840351 162.41901596 -4.76705473 160.33936889 -4.75854492 158.25976562 C-4.75005043 155.08136978 -4.7787647 151.90477999 -4.81054688 148.7265625 C-4.81215937 146.70572971 -4.81158042 144.68489373 -4.80859375 142.6640625 C-4.81982773 141.71496002 -4.83106171 140.76585754 -4.84263611 139.78799438 C-4.79730581 135.48314892 -4.71567215 133.08829741 -2.40649414 129.36083984 C0.87768619 126.34431044 2.74993423 126.31156452 7.12304688 126.30810547 C8.8435601 126.30346786 8.8435601 126.30346786 10.59883118 126.29873657 C11.85527939 126.30070038 13.1117276 126.30266418 14.40625 126.3046875 C15.71180344 126.30318695 17.01735687 126.3016864 18.36247253 126.30014038 C22.63750235 126.29637142 26.91247985 126.30398569 31.1875 126.3125 C32.64637243 126.31476845 34.10524491 126.31700641 35.56411743 126.31921387 C44.94980229 126.33514838 54.33529114 126.37256693 63.72083282 126.42634583 C65.59251078 126.43696126 67.46419357 126.44671414 69.33587646 126.4564209 C75.46119228 126.49079036 81.58535073 126.54681527 87.70996094 126.64703369 C89.47696374 126.6738641 91.24407713 126.69424062 93.01123047 126.70794678 C95.4288408 126.72885816 97.84463936 126.77468152 100.26171875 126.828125 C100.95146286 126.82936371 101.64120697 126.83060242 102.35185242 126.83187866 C107.01431547 126.9762927 109.39751606 128.16550667 112.6875 131.4375 C113.94577087 133.95404175 113.8218014 135.68623784 113.83467102 138.5037384 C113.84540398 140.11254128 113.84540398 140.11254128 113.85635376 141.75384521 C113.85904266 142.93569397 113.86173157 144.11754272 113.86450195 145.33520508 C113.87107315 146.5759227 113.87764435 147.81664032 113.88441467 149.09495544 C113.90077085 152.50416743 113.91237716 155.91331731 113.9206202 159.32255387 C113.92576987 161.45232464 113.93184562 163.58209105 113.93813133 165.71185875 C113.95718432 172.37484562 113.97141513 179.0378214 113.9797433 185.70083028 C113.9895167 193.39320895 114.01583809 201.08529993 114.05624419 208.77757722 C114.08640029 214.72244729 114.10121168 220.66723486 114.10452431 226.61217993 C114.10687543 230.1632171 114.1158432 233.71394697 114.14098549 237.26490211 C114.168587 241.22723229 114.16443657 245.1891837 114.1574707 249.15161133 C114.17668579 250.91527542 114.17668579 250.91527542 114.19628906 252.71456909 C114.14531636 260.6498622 114.14531636 260.6498622 111.85798645 264.58503723 C109.04097239 266.98929719 106.03990901 268.61882463 102.7109375 270.1796875 C101.6935273 270.67381889 101.6935273 270.67381889 100.65556335 271.17793274 C98.46420686 272.2366292 96.26427779 273.27567135 94.0625 274.3125 C92.54868504 275.03413165 91.03493195 275.75589307 89.52124023 276.4777832 C79.42157542 281.26758273 69.31991921 285.94302004 58.6875 289.4375 C57.99333984 289.66969238 57.29917969 289.90188477 56.58398438 290.14111328 C29.59827481 298.95961413 0.61241463 299.33697999 -27.3125 295.4375 C-28.00601563 295.34098145 -28.69953125 295.24446289 -29.4140625 295.14501953 C-66.06605806 289.75866208 -103.268446 271.4432291 -125.8125 241.5 C-131.97658595 233.02315857 -136.85115321 223.90375998 -141.3125 214.4375 C-141.61526855 213.79828613 -141.91803711 213.15907227 -142.22998047 212.50048828 C-155.66332405 183.17194498 -157.44746316 145.68105424 -150.3125 114.4375 C-150.14621094 113.68839355 -149.97992187 112.93928711 -149.80859375 112.16748047 C-144.20033949 87.7456103 -132.25435738 66.73245081 -115.3125 48.4375 C-114.43980469 47.48230469 -113.56710937 46.52710938 -112.66796875 45.54296875 C-94.05422755 26.03621448 -69.25882096 12.52542286 -43.5 5.0625 C-42.67733643 4.82378174 -41.85467285 4.58506348 -41.00708008 4.33911133 C-27.4050059 0.61279258 -14.01374081 -0.00481657 0 0 Z " fill="#F4892B" transform="translate(662.3125,525.5625)"/>
<path d="M0 0 C2.09046651 0.01070039 4.18006736 0.00003933 6.27050781 -0.01269531 C21.235414 -0.0290164 35.36631 1.93075594 49.72363281 6.26074219 C51.47353516 6.76541016 51.47353516 6.76541016 53.25878906 7.28027344 C70.71990221 12.65730828 95.65595925 21.93804419 107.72363281 36.26074219 C108.64048823 42.52592089 106.58573135 46.02197859 103.22363281 51.01074219 C102.76947998 51.7095752 102.31532715 52.4084082 101.84741211 53.12841797 C98.58567736 58.10189191 95.16777476 62.95692335 91.60253906 67.71777344 C89.0660724 71.15070441 86.71316056 74.70138578 84.36425781 78.26464844 C81.84137723 81.33415315 79.87766467 82.08977451 75.98144531 82.66699219 C71.47391199 82.1049017 68.43242693 80.09882378 64.59863281 77.76074219 C39.61500215 63.22372625 10.48177111 55.30822524 -18.27636719 62.26074219 C-39.68900175 68.37863778 -54.82511458 82.94320615 -65.54760742 102.08374023 C-77.57843132 124.22612061 -79.83672096 151.59513586 -73.31152344 175.84667969 C-66.59560788 197.78081467 -53.81949985 216.32233475 -33.20703125 227.32910156 C-29.64283239 229.04900329 -25.96016556 230.37131219 -22.21386719 231.63574219 C-21.50689697 231.87437988 -20.79992676 232.11301758 -20.0715332 232.35888672 C0.18332596 238.74204047 22.44307807 238.01855486 42.72363281 232.26074219 C43.41166992 232.06818848 44.09970703 231.87563477 44.80859375 231.67724609 C56.63070222 228.2771827 66.66087752 223.17074719 76.33691406 215.58105469 C79.56873151 213.79324078 81.08820759 213.44058288 84.72363281 214.26074219 C87.20357896 216.60806209 88.9187798 219.37805352 90.72363281 222.26074219 C91.28050781 223.1422998 91.83738281 224.02385742 92.41113281 224.93212891 C94.21110664 227.83749961 95.97225498 230.76334593 97.72363281 233.69824219 C98.90922576 235.6772505 100.09670386 237.65513077 101.28613281 239.63183594 C102.13884766 241.06052002 102.13884766 241.06052002 103.00878906 242.51806641 C104.63914448 245.12561379 106.40485658 247.56818336 108.22363281 250.04589844 C110.27639292 253.11830315 110.71778825 254.18372211 111.00878906 258.01855469 C109.34180838 262.22400748 106.91101112 263.90819834 103.16113281 266.13574219 C102.49146484 266.55573486 101.82179688 266.97572754 101.13183594 267.40844727 C99.01226236 268.72233642 96.87277197 269.9958817 94.72363281 271.26074219 C94.05219238 271.66115723 93.38075195 272.06157227 92.68896484 272.47412109 C88.09860782 275.19504088 83.44246516 277.76995011 78.72363281 280.26074219 C77.55703125 280.87820313 76.39042969 281.49566406 75.18847656 282.13183594 C42.65356043 298.30921949 2.13411358 302.48787489 -33.27636719 294.26074219 C-34.52184326 293.9786792 -34.52184326 293.9786792 -35.79248047 293.69091797 C-60.16238995 287.96619806 -83.65871844 276.0882324 -102.27636719 259.26074219 C-103.25089844 258.3803125 -104.22542969 257.49988281 -105.22949219 256.59277344 C-130.38611525 233.0569418 -145.04294673 196.44403589 -146.4375 162.31762695 C-146.45731023 160.94587241 -146.47107708 159.57402021 -146.47949219 158.20214844 C-146.48519226 157.45472885 -146.49089233 156.70730927 -146.49676514 155.9372406 C-146.50615098 154.36157617 -146.51272334 152.78589269 -146.51660156 151.21020508 C-146.52621622 148.86014136 -146.55726253 146.51098877 -146.58886719 144.16113281 C-146.66312548 133.54839748 -145.49892942 123.63155315 -143.27636719 113.26074219 C-143.08816406 112.3712085 -142.89996094 111.4816748 -142.70605469 110.56518555 C-134.45379254 74.27215569 -111.65160187 42.89954602 -80.36328125 23.046875 C-55.86848156 7.95688413 -28.80705786 -0.17442559 0 0 Z " fill="#44923F" transform="translate(383.2763671875,525.7392578125)"/>
<path d="M0 0 C107.25 0 214.5 0 325 0 C316.23212303 32.14888221 299.48973509 55.19485691 270.390625 72.140625 C237.26338961 90.77634467 199.068607 93.22287332 161.8125 93.25 C160.36375488 93.25151062 160.36375488 93.25151062 158.88574219 93.25305176 C142.75194879 93.24172559 126.96703321 92.49998428 111 90 C110.09008301 89.86078125 109.18016602 89.7215625 108.24267578 89.578125 C83.16930015 85.57897482 57.64885709 76.50379438 38 60 C37.03191406 59.19304687 36.06382812 58.38609375 35.06640625 57.5546875 C17.13062813 42.11484527 7.42792343 23.14449674 0 1 C0 0.67 0 0.34 0 0 Z " fill="#FEF8ED" transform="translate(349,404)"/>
<path d="M0 0 C4.65887607 2.87605707 8.83624019 6.31613506 12.96484375 9.8984375 C16.89006976 13.07471234 19.89865357 14.08031094 24.98046875 13.74609375 C30.744977 12.66331492 34.61492612 8.97742831 38.9765625 5.3359375 C49.23553848 -2.88351112 59.34121758 -4.06097314 72.1640625 -2.6640625 C79.31513797 -1.15904163 84.91172947 2.35326682 89.1640625 8.3359375 C95.36897483 20.61334025 95.21079017 32.29994448 92.11328125 45.55859375 C91.12180524 48.45957911 90.26580942 50.11710219 88.1640625 52.3359375 C85.83830357 52.84209538 85.83830357 52.84209538 83.04676819 52.8506012 C81.98824142 52.86332565 80.92971466 52.87605011 79.83911133 52.88916016 C78.67798828 52.88263428 77.51686523 52.8761084 76.32055664 52.86938477 C75.09759384 52.87800034 73.87463104 52.88661591 72.61460876 52.89549255 C69.25891687 52.9143269 65.90421059 52.91503996 62.54854131 52.90617108 C59.74777022 52.90106492 56.94708794 52.90835076 54.14632601 52.91564316 C47.53895953 52.93265251 40.93182394 52.92906645 34.32446289 52.91235352 C27.50722831 52.89543271 20.69063404 52.91126305 13.87346941 52.9435764 C8.02111733 52.97026592 2.16896466 52.97755007 -3.68344218 52.96906132 C-7.1791149 52.96412986 -10.67440235 52.96635858 -14.17002678 52.98684883 C-18.06795224 53.00860275 -21.96510502 52.98981438 -25.86303711 52.96704102 C-27.02213593 52.97873322 -28.18123474 52.99042542 -29.37545776 53.00247192 C-37.19394553 52.90925559 -37.19394553 52.90925559 -40.51881409 49.94004822 C-45.78117521 39.5357301 -46.99281851 25.54513596 -43.7109375 14.2734375 C-40.65857737 7.00122465 -36.31110279 1.4479432 -29.0078125 -1.81640625 C-19.84414095 -4.26531847 -8.61738974 -4.17543626 0 0 Z " fill="#ED712D" transform="translate(427.8359375,335.6640625)"/>
<path d="M0 0 C4.75982924 2.62772498 7.04616381 6.26349144 8.75 11.375 C8.8857708 12.98920283 8.97407323 14.60766927 9.03125 16.2265625 C9.08732422 17.62648438 9.08732422 17.62648438 9.14453125 19.0546875 C9.21512315 21.02603168 9.28543345 22.99738597 9.35546875 24.96875 C9.41154297 26.36480469 9.41154297 26.36480469 9.46875 27.7890625 C9.49904297 28.6445166 9.52933594 29.4999707 9.56054688 30.38134766 C9.53628524 32.37363252 9.53628524 32.37363252 10.75 33.375 C14.27332714 33.51109418 17.79040496 33.62296021 21.31640625 33.62890625 C25.5631575 33.76826424 27.28873785 34.01033725 30.734375 36.734375 C35.43254003 42.88933539 34.37020507 51.93760895 33.75 59.375 C32.17072058 67.39773947 28.69620463 73.93256847 23.75 80.375 C23.31848633 81.2319043 22.88697266 82.08880859 22.44238281 82.97167969 C17.97856506 86.95624824 12.87322709 85.98679374 7.109375 85.86328125 C5.87205627 85.85620651 4.63473755 85.84913177 3.35992432 85.84184265 C0.07802274 85.81860174 -3.20264431 85.77371955 -6.48413086 85.71832275 C-9.83565901 85.6670777 -13.18724022 85.64474425 -16.5390625 85.61914062 C-23.10985763 85.56399735 -29.67982786 85.48031265 -36.25 85.375 C-36.27892979 83.64072503 -36.29940481 81.90630792 -36.31640625 80.171875 C-36.32873291 79.20604492 -36.34105957 78.24021484 -36.35375977 77.24511719 C-35.99525999 67.32859157 -30.50704455 58.12235182 -26.25 49.375 C-27.9 48.715 -29.55 48.055 -31.25 47.375 C-36.68990318 54.35373435 -40.98359924 61.14260783 -44.25 69.375 C-44.6625 70.385625 -45.075 71.39625 -45.5 72.4375 C-46.57655589 76.65401058 -46.81698234 81.04482336 -47.25 85.375 C-58.47 85.375 -69.69 85.375 -81.25 85.375 C-80.25 78.375 -80.25 78.375 -79.67163086 75.84692383 C-79.14526315 72.76095219 -79.31478475 69.948152 -79.50390625 66.82421875 C-79.55224609 65.56802734 -79.60058594 64.31183594 -79.65039062 63.01757812 C-79.75805286 60.39087897 -79.90104287 57.76537929 -80.08007812 55.14257812 C-80.35432509 45.73638828 -80.35432509 45.73638828 -77.13769531 41.77099609 C-74.59545163 39.71555506 -72.07681786 38.01141079 -69.25 36.375 C-68.47076172 35.87919434 -67.69152344 35.38338867 -66.88867188 34.87255859 C-62.87314742 32.38476398 -59.1446247 31.2877814 -54.48828125 30.74609375 C-45.32214195 30.00229789 -45.32214195 30.00229789 -37.54394531 25.73388672 C-34.75807889 21.87126846 -32.97738596 17.67053024 -31.1640625 13.29272461 C-28.74627369 8.22014686 -24.98417295 4.81900331 -20.125 2.0625 C-19.27679687 1.57136719 -18.42859375 1.08023437 -17.5546875 0.57421875 C-11.70354204 -2.47036033 -5.96562192 -2.68731754 0 0 Z " fill="#8EB03E" transform="translate(614.25,302.625)"/>
<path d="M0 0 C17.49 0 34.98 0 53 0 C53 9.01449696 53 9.01449696 51.56640625 12.4453125 C51.2521167 13.20513428 50.93782715 13.96495605 50.61401367 14.74780273 C50.26701416 15.53227783 49.92001465 16.31675293 49.5625 17.125 C49.20196533 17.95394775 48.84143066 18.78289551 48.4699707 19.63696289 C35.58036009 48.40479781 10.46345419 68.98398878 -18.6875 80.1875 C-27.93023593 83.55506093 -37.36165318 86.05794504 -47 88 C-47.84916992 88.17192871 -48.69833984 88.34385742 -49.57324219 88.52099609 C-72.36386503 92.81184959 -95.96374543 90.81969847 -119 90 C-119 89.67 -119 89.34 -119 89 C-118.39341553 88.94054199 -117.78683105 88.88108398 -117.16186523 88.81982422 C-95.8559258 86.64986734 -75.2001658 82.83775987 -56 73 C-55.38833984 72.68804687 -54.77667969 72.37609375 -54.14648438 72.0546875 C-45.6520788 67.64154332 -38.10853627 62.44466435 -31 56 C-30.50757813 55.55672363 -30.01515625 55.11344727 -29.5078125 54.65673828 C-18.09377966 44.25302117 -10.2654369 32.61002649 -5 18 C-4.70480469 17.19820313 -4.40960937 16.39640625 -4.10546875 15.5703125 C-2.28948323 10.39967391 -1.20147043 5.40661696 0 0 Z " fill="#E9DED2" transform="translate(619,405)"/>
<path d="M0 0 C1.1034375 -0.00773437 2.206875 -0.01546875 3.34375 -0.0234375 C6.96952212 0.43427136 8.67062802 1.06434622 11.5 3.375 C15.1155795 8.50452357 16.29287539 13.03724567 17.125 19.1875 C17.64088931 24.78551071 17.64088931 24.78551071 20.5 29.375 C25.85570882 29.89183559 29.02179863 28.92960456 33.6875 26.375 C40.75450139 22.93502119 47.02530881 21.9163789 54.69921875 23.9609375 C57.78281345 25.1633455 60.80984654 26.49179704 62.5 29.375 C63.02924879 33.98702517 62.97756573 36.36017282 61 40.5625 C58.43922188 43.44337539 56.1694623 45.03970037 52.87109375 46.94140625 C48.20048177 49.76531827 43.88254738 53.12837023 39.5 56.375 C38.51 55.50875 37.52 54.6425 36.5 53.75 C35.16945784 52.62170025 33.83599991 51.49683199 32.5 50.375 C31.88640625 49.8490625 31.2728125 49.323125 30.640625 48.78125 C19.60905769 39.84659218 6.27167524 38.5059852 -7.5 39.375 C-11.58516132 40.13254413 -15.5219803 41.18652043 -19.5 42.375 C-20.83220862 42.71280035 -22.16536609 43.04691281 -23.5 43.375 C-24.14670222 29.76551112 -24.14492671 17.81596164 -15 6.75 C-10.52059476 1.91139716 -6.64371784 -0.04656812 0 0 Z " fill="#8EB03E" transform="translate(490.5,279.625)"/>
<path d="M0 0 C2.75025593 2.67482471 3.89294635 4.33627254 4.50793457 8.14916992 C4.51111694 9.33099854 4.51429932 10.51282715 4.51757812 11.73046875 C4.5245874 12.38641022 4.53159668 13.04235168 4.53881836 13.71817017 C4.55634808 15.87505083 4.5447953 18.03060723 4.53125 20.1875 C4.5339464 21.69295502 4.53783006 23.19840834 4.54284668 24.70385742 C4.54873486 27.85449859 4.54020135 31.00468523 4.52148438 34.15527344 C4.49869449 38.1872526 4.51182133 42.21816669 4.53577423 46.25010681 C4.55025107 49.35746234 4.54561774 52.4645667 4.53526306 55.57192993 C4.53260095 57.058239 4.53584741 58.54457112 4.54518127 60.03085327 C4.55537891 62.11102406 4.53980512 64.18948718 4.51757812 66.26953125 C4.51280457 68.04227417 4.51280457 68.04227417 4.50793457 69.85083008 C3.89350235 73.66028031 2.73169017 75.31429891 0 78 C-3.4375 79.0625 -3.4375 79.0625 -7 79 C-9.80189446 77.23358828 -11.51524911 75.96950178 -13 73 C-13.1123055 70.87218046 -13.1593534 68.74081554 -13.17700195 66.61010742 C-13.18357315 65.95460403 -13.19014435 65.29910065 -13.19691467 64.62373352 C-13.21665056 62.45097746 -13.22831117 60.27829054 -13.23828125 58.10546875 C-13.24439454 56.99225974 -13.24439454 56.99225974 -13.25063133 55.85656166 C-13.27149391 51.92805891 -13.28579444 47.9995911 -13.29516602 44.07104492 C-13.30622745 40.01555878 -13.34062302 35.96062179 -13.38033772 31.9053297 C-13.40649875 28.78517139 -13.41485738 25.66514398 -13.41844749 22.54488564 C-13.4233153 21.05016689 -13.43493498 19.55545407 -13.45348549 18.06084251 C-13.47786663 15.96614623 -13.47691488 13.87287126 -13.4699707 11.77807617 C-13.47583694 10.58719894 -13.48170319 9.39632172 -13.48774719 8.1693573 C-12.90221101 4.36457193 -11.66723552 2.72227412 -9 0 C-5.77839187 -1.61080407 -3.42436421 -0.82657067 0 0 Z " fill="#FECD5E" transform="translate(516,161)"/>
<path d="M0 0 C3.99008264 3.43363174 6.65775678 7.33516589 9.2578125 11.85546875 C9.64324722 12.51049377 10.02868195 13.1655188 10.42579651 13.84039307 C11.66632618 15.95182806 12.89614526 18.06925234 14.125 20.1875 C15.81879695 23.09019375 17.51637979 25.99066013 19.21484375 28.890625 C19.83589745 29.95348976 19.83589745 29.95348976 20.46949768 31.03782654 C22.7996333 35.01060288 25.19011633 38.92836353 27.69140625 42.796875 C28.20880371 43.60229736 28.72620117 44.40771973 29.25927734 45.23754883 C30.17409109 46.64667476 31.10415036 48.04608958 32.05322266 49.43237305 C34.77648005 53.66029891 35.47276885 56.98046834 35.44458008 62.00415039 C34.88859336 64.50013688 33.96931214 65.41334897 32 67 C30.1328125 67.6875 30.1328125 67.6875 28.125 68 C27.46757812 68.12375 26.81015625 68.2475 26.1328125 68.375 C22.71146335 67.77344411 21.29319616 65.53029869 19 63 C17.49393816 60.73127284 16.09600415 58.49824928 14.7421875 56.14453125 C14.3567981 55.48946091 13.97140869 54.83439056 13.57434082 54.1594696 C12.33395112 52.04797784 11.1041621 49.93054396 9.875 47.8125 C8.17985416 44.91113485 6.48066244 42.01214884 4.78125 39.11328125 C4.36700775 38.40491119 3.9527655 37.69654114 3.52597046 36.96670532 C1.19493612 32.99168995 -1.18578811 29.05866485 -3.65625 25.16796875 C-4.16913574 24.35803467 -4.68202148 23.54810059 -5.21044922 22.71362305 C-6.11709577 21.29481665 -7.03448721 19.88278568 -7.96533203 18.47973633 C-10.84261388 13.95285196 -11.85257771 10.39792376 -12 5 C-8.71914333 0.078715 -5.79090106 -1.03408947 0 0 Z " fill="#FECC5B" transform="translate(413,189)"/>
<path d="M0 0 C3.5 0.5 3.5 0.5 5.875 2.0625 C8.00792602 5.26188903 8.93692085 7.69427735 8.5 11.5 C6.62858459 15.80981803 4.12562483 19.72187903 1.625 23.6875 C0.90097516 24.86411221 0.17867235 26.04178563 -0.54199219 27.22045898 C-2.06141166 29.70089003 -3.59084551 32.17477435 -5.12597656 34.64550781 C-7.53890596 38.54362272 -9.87869319 42.48294139 -12.2109375 46.4296875 C-13.35281357 48.35158811 -14.49594296 50.27273587 -15.63970947 52.19351196 C-16.37725318 53.4350432 -17.11209895 54.67818133 -17.84417725 55.92294312 C-18.87058895 57.66414064 -19.91155302 59.39673489 -20.953125 61.12890625 C-21.54254883 62.11963135 -22.13197266 63.11035645 -22.73925781 64.13110352 C-24.56655363 66.58954103 -25.61536116 67.55921918 -28.5 68.5 C-34.63445024 68.1771342 -34.63445024 68.1771342 -37.17333984 66.19091797 C-39.12452509 63.70400059 -39.18829004 61.29281319 -39.07519531 58.21191406 C-37.82093867 52.29838147 -34.11578476 47.38576036 -30.875 42.375 C-30.09999771 41.14577215 -29.32698924 39.91528514 -28.5559082 38.68359375 C-26.98345568 36.17536923 -25.40176266 33.67333898 -23.81396484 31.17480469 C-21.62190271 27.71159041 -19.49987467 24.21196412 -17.39453125 20.6953125 C-16.45311279 19.12354248 -16.45311279 19.12354248 -15.49267578 17.52001953 C-14.31568819 15.55094508 -13.14078155 13.58062484 -11.96826172 11.60888672 C-11.43604004 10.7273291 -10.90381836 9.84577148 -10.35546875 8.9375 C-9.66940552 7.79087891 -9.66940552 7.79087891 -8.96948242 6.62109375 C-6.31786202 2.7936676 -4.71723407 0.67389058 0 0 Z " fill="#FECB5B" transform="translate(614.5,188.5)"/>
<path d="M0 0 C3.27522945 2.15475621 3.90229594 3.6641423 5 7.4375 C5 11.9132825 4.04190613 12.80109227 1 16 C-1.23058105 17.54710814 -3.41535153 18.94571783 -5.75 20.3125 C-10.99524635 23.4587735 -16.11159723 26.72867144 -21.14453125 30.20703125 C-22.20510742 30.93559326 -23.26568359 31.66415527 -24.35839844 32.41479492 C-26.46794295 33.86996914 -28.56915007 35.33731676 -30.66113281 36.81762695 C-38.8834901 42.45274201 -38.8834901 42.45274201 -43.03125 42.55859375 C-46.81846621 41.84599912 -48.50294823 40.95106119 -51 38 C-51.6337731 34.12694214 -51.6287914 31.98906855 -49.50439453 28.64746094 C-46.17080196 25.12343307 -42.43122381 22.69507066 -38.3671875 20.078125 C-37.53414093 19.53267029 -36.70109436 18.98721558 -35.84280396 18.42523193 C-33.1918822 16.6923252 -30.53353831 14.97119304 -27.875 13.25 C-26.07894471 12.07756153 -24.2833663 10.90439219 -22.48828125 9.73046875 C-19.21226912 7.59235405 -15.9352957 5.45579544 -12.65185547 3.32910156 C-11.99329559 2.90228088 -11.33473572 2.47546021 -10.65621948 2.03570557 C-6.98071476 -0.26274626 -4.34963738 -0.37496874 0 0 Z " fill="#FECC5B" transform="translate(689,255)"/>
<path d="M0 0 C4.15990569 2.1037302 7.88984708 4.74487371 11.6875 7.4375 C13.2794519 8.53433105 13.2794519 8.53433105 14.90356445 9.65332031 C17.00112802 11.10124435 19.09335658 12.55693318 21.1796875 14.02099609 C23.53537822 15.67397644 25.90146405 17.30783131 28.28125 18.92578125 C41.45110797 27.90221595 41.45110797 27.90221595 43 31 C43.53507099 35.0130324 43.33051628 36.53928033 40.9375 39.875 C37.22490965 42.56070366 35.51340203 42.4381163 31 42 C27.93310547 40.49047852 27.93310547 40.49047852 24.8671875 38.37890625 C24.30863068 38.0007225 23.75007385 37.62253876 23.17459106 37.2328949 C21.39731662 36.02431547 19.63635042 34.79413736 17.875 33.5625 C16.71715469 32.7700084 15.55830608 31.97898057 14.3984375 31.18945312 C11.50504871 29.21449631 8.6272689 27.21800583 5.75280762 25.21563721 C3.95449643 23.96844158 2.1487651 22.73269413 0.34082031 21.49951172 C-0.25012421 21.09498276 -0.84106873 20.6904538 -1.44992065 20.27366638 C-3.08268585 19.15623001 -4.71683679 18.04081924 -6.35107422 16.92553711 C-10.52128245 13.89416086 -10.52128245 13.89416086 -12 12 C-12.75 5.25 -12.75 5.25 -10.5 1.5 C-6.92948249 -0.64231051 -3.99031038 -0.84569796 0 0 Z " fill="#FECC5B" transform="translate(342,255)"/>
<path d="M0 0 C9.75010396 3.93658371 14.80515769 10.17736483 19.66796875 19.30078125 C20.04695313 19.98527344 20.4259375 20.66976563 20.81640625 21.375 C23.36040874 27.12817995 21.35536928 33.04642425 19.32421875 38.61328125 C19.10765625 39.17015625 18.89109375 39.72703125 18.66796875 40.30078125 C17.86746094 39.73810547 17.86746094 39.73810547 17.05078125 39.1640625 C9.69543282 34.11203252 2.65024582 29.85348229 -6.14453125 27.98828125 C-10.31909681 26.96678218 -12.14586773 25.95734832 -14.45703125 22.30078125 C-17.49323436 16.44999569 -18.30414717 10.82920682 -17.33203125 4.30078125 C-13.7040401 -2.19359985 -6.26518589 -1.87850632 0 0 Z " fill="#8BAD3D" transform="translate(429.33203125,292.69921875)"/>
<path d="M0 0 C0.73997726 -0.00570007 1.47995453 -0.01140015 2.24235535 -0.01727295 C3.81007456 -0.02672518 5.37781366 -0.03325782 6.94555664 -0.03710938 C9.33580582 -0.04679532 11.7251878 -0.07780695 14.11523438 -0.109375 C15.63931782 -0.11590723 17.1634074 -0.12115684 18.6875 -0.125 C19.39912796 -0.1373468 20.11075592 -0.1496936 20.84394836 -0.16241455 C25.25232377 -0.1427818 28.03921857 0.48931873 31.54296875 3.203125 C33.10997317 6.33713385 33.39461436 9.83467595 32.54296875 13.203125 C29.16224437 16.68607431 26.61639169 17.66957282 21.76843262 17.75891113 C20.68229675 17.74676575 20.68229675 17.74676575 19.57421875 17.734375 C18.81629028 17.7382019 18.05836182 17.74202881 17.27746582 17.74597168 C15.68056911 17.74868455 14.08362749 17.74136703 12.48681641 17.72460938 C10.05009381 17.70318764 7.61631899 17.72442889 5.1796875 17.75 C3.62369145 17.74735661 2.06769722 17.74223139 0.51171875 17.734375 C-0.57441711 17.74652039 -0.57441711 17.74652039 -1.68249512 17.75891113 C-5.25310708 17.69311181 -7.33030666 17.28172633 -10.38867188 15.38476562 C-13.26012457 12.35604735 -13.52953915 10.33607531 -13.45703125 6.203125 C-9.70081933 0.24499574 -6.61643396 0.03917934 0 0 Z " fill="#FECD5E" transform="translate(324.45703125,349.796875)"/>
<path d="M0 0 C1.49755431 -0.01652429 2.99503089 -0.0437684 4.4921875 -0.08203125 C6.65894179 -0.13708577 8.82384938 -0.15871624 10.99121094 -0.17333984 C12.28768555 -0.19315918 13.58416016 -0.21297852 14.91992188 -0.23339844 C19.65184489 0.53636034 21.21211962 1.91617677 24.50683594 5.35009766 C25.25683594 8.85009766 25.25683594 8.85009766 24.50683594 12.35009766 C21.20332022 15.79137754 19.60770673 17.15394976 14.87573242 17.99707031 C13.55645752 18.00270996 12.23718262 18.00834961 10.87792969 18.01416016 C9.80974754 18.0213356 9.80974754 18.0213356 8.71998596 18.02865601 C7.22321344 18.03204058 5.72636554 18.02293919 4.22973633 18.00195312 C1.94607237 17.97511806 -0.33269657 18.00176101 -2.61621094 18.03369141 C-4.07650817 18.03038782 -5.53680238 18.02398261 -6.99707031 18.01416016 C-8.31521729 18.00852051 -9.63336426 18.00288086 -10.99145508 17.99707031 C-15.33754551 17.19409049 -16.82410106 15.81278517 -19.49316406 12.35009766 C-20.05566406 8.78759766 -20.05566406 8.78759766 -19.49316406 5.35009766 C-14.3305054 -1.18926998 -7.64575365 0.06179399 0 0 Z " fill="#FECD5E" transform="translate(687.4931640625,349.64990234375)"/>
<path d="M0 0 C-0.14363527 1.37523135 -0.29003517 2.75017402 -0.4375 4.125 C-0.51871094 4.89070313 -0.59992188 5.65640625 -0.68359375 6.4453125 C-0.90222753 8.21057785 -1.17826858 9.96933542 -1.5 11.71875 C-2.14202081 15.93201157 -2.35558295 20.12132809 -2.5625 24.375 C-2.60568359 25.20644531 -2.64886719 26.03789062 -2.69335938 26.89453125 C-2.79861805 28.92953228 -2.89973072 30.96474703 -3 33 C-2.34 33.33 -1.68 33.66 -1 34 C-4.63 34.99 -8.26 35.98 -12 37 C-13.19209917 11.91293515 -13.19209917 11.91293515 -4.953125 2.71484375 C-1.86104784 0 -1.86104784 0 0 0 Z " fill="#7B9837" transform="translate(479,286)"/>
<path d="M0 0 C0.82250244 0.0714624 1.64500488 0.1429248 2.49243164 0.21655273 C14.14589348 1.12013598 25.75461685 1.11401783 37.4375 1.0625 C39.44075408 1.05747118 41.44400939 1.05291074 43.44726562 1.04882812 C48.29820819 1.03794072 53.14909003 1.02075358 58 1 C56.34673857 3.02192875 55.46739049 3.92008751 52.85061646 4.36749268 C52.01964447 4.36384705 51.18867249 4.36020142 50.33251953 4.35644531 C49.38788849 4.35944641 48.44325745 4.36244751 47.47000122 4.36553955 C46.45122894 4.35319275 45.43245667 4.34084595 44.3828125 4.328125 C43.33350555 4.32625183 42.28419861 4.32437866 41.20309448 4.32244873 C38.98220649 4.31572296 36.76133046 4.30179813 34.54052734 4.28125 C31.14539543 4.25018661 27.75072849 4.24028751 24.35546875 4.234375 C22.19791103 4.22520098 20.04035801 4.21482394 17.8828125 4.203125 C16.36072678 4.19675018 16.36072678 4.19675018 14.80789185 4.19024658 C13.85695648 4.18063904 12.90602112 4.17103149 11.92626953 4.16113281 C10.67742477 4.15089081 10.67742477 4.15089081 9.40335083 4.14044189 C6.85956398 3.9917935 4.48418282 3.55520696 2 3 C2 2.34 2 1.68 2 1 C1.34 0.67 0.68 0.34 0 0 Z " fill="#FCFBF8" transform="translate(355,821)"/>
<path d="M0 0 C0.66 0 1.32 0 2 0 C0.96699326 3.44335579 -0.25774239 6.58356036 -1.9375 9.75 C-6.06651955 17.869378 -7.50163034 25.96060541 -8 35 C-8.99 35 -9.98 35 -11 35 C-12.1421936 22.79121956 -8.29502055 11.41740411 -1.33203125 1.44140625 C-0.89246094 0.96574219 -0.45289063 0.49007813 0 0 Z " fill="#6C5731" transform="translate(586,353)"/>
<path d="M0 0 C0.66 0 1.32 0 2 0 C2 0.99 2 1.98 2 3 C11.24 3 20.48 3 30 3 C30.495 3.99 30.495 3.99 31 5 C19.45 5 7.9 5 -4 5 C-3.34 4.01 -2.68 3.02 -2 2 C-1.34 2 -0.68 2 0 2 C0 1.34 0 0.68 0 0 Z " fill="#F3EEE4" transform="translate(654,383)"/>
<path d="M0 0 C0 0.66 0 1.32 0 2 C-1.4103177 3.22427579 -2.88148931 4.37871813 -4.375 5.5 C-10.04488136 9.9063078 -15.02485555 14.83431811 -20 20 C-20.66 19.34 -21.32 18.68 -22 18 C-20.58986988 14.59218555 -19.03419698 13.05254501 -16 11 C-14.948125 10.1646875 -14.948125 10.1646875 -13.875 9.3125 C-12 8 -12 8 -10 8 C-9.79375 7.4225 -9.5875 6.845 -9.375 6.25 C-7.35521672 2.94490009 -4.02576079 0 0 0 Z " fill="#F0F3E9" transform="translate(293,555)"/>
<path d="M0 0 C0.66 0 1.32 0 2 0 C1.30150228 3.9745504 -0.62892769 7.26574098 -2.5625 10.75 C-2.89185547 11.35199219 -3.22121094 11.95398438 -3.56054688 12.57421875 C-4.3696465 14.05170503 -5.18427662 15.52616036 -6 17 C-6.99 17 -7.98 17 -9 17 C-9 13.04 -9 9.08 -9 5 C-7.329375 4.87625 -7.329375 4.87625 -5.625 4.75 C-1.94246056 4.42126213 -1.94246056 4.42126213 -0.5625 1.9375 C-0.376875 1.298125 -0.19125 0.65875 0 0 Z " fill="#F6F2EB" transform="translate(574,303)"/>
<path d="M0 0 C0.33 0 0.66 0 1 0 C1.35008682 3.67591166 1.0950608 5.7949601 -0.47167969 9.17431641 C-3.37017951 12.41371743 -3.37017951 12.41371743 -6.94238281 12.68115234 C-8.52961394 12.68020649 -10.11705072 12.64653411 -11.703125 12.5859375 C-12.54091492 12.57744781 -13.37870483 12.56895813 -14.24188232 12.56021118 C-16.91257431 12.52667573 -19.58022411 12.45140287 -22.25 12.375 C-24.06245633 12.34490028 -25.87496008 12.31752448 -27.6875 12.29296875 C-32.1261686 12.22688474 -36.56256895 12.12336742 -41 12 C-41 11.67 -41 11.34 -41 11 C-39.96593018 10.99589111 -38.93186035 10.99178223 -37.86645508 10.98754883 C-34.01748302 10.96572133 -30.16952802 10.91139574 -26.32104492 10.84741211 C-24.65773288 10.82426334 -22.9942749 10.80984369 -21.33081055 10.80444336 C-18.93446249 10.7951302 -16.54039941 10.75409449 -14.14453125 10.70703125 C-13.03486748 10.71293022 -13.03486748 10.71293022 -11.90278625 10.71894836 C-7.94766605 10.60801675 -6.16668605 10.13345063 -3.04174805 7.6315918 C-0.95584176 4.94308482 -0.28728666 3.35167764 0 0 Z " fill="#FEFCFB" transform="translate(358,356)"/>
<path d="M0 0 C-4.26607434 1.82831758 -8.58783599 3.11898284 -13.0625 4.3125 C-13.76955078 4.51939453 -14.47660156 4.72628906 -15.20507812 4.93945312 C-20.43049015 6.31817686 -20.43049015 6.31817686 -23.49609375 4.60546875 C-23.99238281 4.07566406 -24.48867188 3.54585938 -25 3 C-19.91573134 1.81367065 -14.82587629 0.73929916 -9.6875 -0.1875 C-8.70136719 -0.36667969 -7.71523438 -0.54585938 -6.69921875 -0.73046875 C-4.1136459 -0.98865186 -2.44063468 -0.81740972 0 0 Z " fill="#F0EBE5" transform="translate(582,508)"/>
<path d="M0 0 C0 0.33 0 0.66 0 1 C2.31 1.33 4.62 1.66 7 2 C7 2.33 7 2.66 7 3 C-3.89 3 -14.78 3 -26 3 C-26 2.67 -26 2.34 -26 2 C-23.16724047 1.66103732 -20.33395339 1.32870306 -17.5 1 C-16.31277344 0.85691406 -16.31277344 0.85691406 -15.1015625 0.7109375 C-10.02970596 0.12892118 -5.10506141 -0.09367085 0 0 Z " fill="#E3D7CA" transform="translate(526,492)"/>
<path d="M0 0 C1.51183868 3.9249658 0.46099883 6.76930452 -0.75 10.6875 C-1.09546875 11.84636719 -1.4409375 13.00523437 -1.796875 14.19921875 C-2.19390625 15.12347656 -2.5909375 16.04773438 -3 17 C-3.99 17.33 -4.98 17.66 -6 18 C-5.70525904 11.63359524 -4.73796238 4.73796238 0 0 Z " fill="#FBFBF6" transform="translate(245,617)"/>
<path d="M0 0 C1.125 1.6875 1.125 1.6875 2 4 C1.25 6.6875 1.25 6.6875 0 9 C-0.99 9.495 -0.99 9.495 -2 10 C-2.433125 10.721875 -2.86625 11.44375 -3.3125 12.1875 C-5.26961698 15.44936163 -7.52081619 18.11878638 -10 21 C-10 16.84229144 -7.82086087 14.38321576 -5.5625 11.0625 C-2.00993717 5.88913693 -2.00993717 5.88913693 0 0 Z " fill="#FBFAF7" transform="translate(492,564)"/>
<path d="M0 0 C0.33 0 0.66 0 1 0 C1 7.92 1 15.84 1 24 C0.01 24.33 -0.98 24.66 -2 25 C-2.05437005 22.14557247 -2.09384974 19.29219924 -2.125 16.4375 C-2.14175781 15.63763672 -2.15851562 14.83777344 -2.17578125 14.01367188 C-2.21723982 8.93499665 -1.64056075 4.81188094 0 0 Z " fill="#F69239" transform="translate(577,658)"/>
<path d="M0 0 C3 0 3 0 4.82421875 1.6796875 C5.43910156 2.40414063 6.05398438 3.12859375 6.6875 3.875 C7.31011719 4.59429687 7.93273437 5.31359375 8.57421875 6.0546875 C10 8 10 8 10 10 C10.66 10 11.32 10 12 10 C12.33 9.34 12.66 8.68 13 8 C13 9.98 13 11.96 13 14 C12.34 14 11.68 14 11 14 C9.62984736 12.42330631 8.32708298 10.78756162 7.0625 9.125 C4.77093538 6.11812455 3.16418962 4.10945975 0 2 C0 1.34 0 0.68 0 0 Z " fill="#F3F0EB" transform="translate(444,286)"/>
<path d="M0 0 C-0.86625 0.37125 -1.7325 0.7425 -2.625 1.125 C-8.12039599 4.17799777 -12.18180257 7.81812873 -14 14 C-14.6640625 12.25390625 -14.6640625 12.25390625 -15 10 C-12.16798988 4.45309295 -6.85465327 -2.79263652 0 0 Z " fill="#F47A2E" transform="translate(401,336)"/>
<path d="M0 0 C0.99 0.33 1.98 0.66 3 1 C0.92348993 3.15341785 -1.13225188 5.10249521 -3.5 6.9375 C-6.08506206 9.0701762 -7.99441543 11.32588723 -10 14 C-10 9.74833085 -9.86411278 9.29543562 -7.25 6.3125 C-6.73953125 5.71050781 -6.2290625 5.10851562 -5.703125 4.48828125 C-3.80445353 2.82912109 -2.46177286 2.40137601 0 2 C0 1.34 0 0.68 0 0 Z " fill="#F6F3EF" transform="translate(385,322)"/>
<path d="M0 0 C0 0.99 0 1.98 0 3 C-0.969375 3.268125 -1.93875 3.53625 -2.9375 3.8125 C-3.948125 4.204375 -4.95875 4.59625 -6 5 C-6.33 5.99 -6.66 6.98 -7 8 C-10.33333333 8.66666667 -13.66666667 9.33333333 -17 10 C-14.26307534 6.69330664 -10.60004821 5.13219468 -6.8125 3.3125 C-6.15830078 2.99216797 -5.50410156 2.67183594 -4.83007812 2.34179688 C-3.22272093 1.55571708 -1.61171142 0.77711317 0 0 Z " fill="#2F882D" transform="translate(452,747)"/>
<path d="M0 0 C0.99 0.33 1.98 0.66 3 1 C-5.92250923 9.08118081 -5.92250923 9.08118081 -10 11 C-10.66 10.67 -11.32 10.34 -12 10 C-10.07254909 8.29965959 -8.13458261 6.61509021 -6.1875 4.9375 C-5.36668945 4.20950195 -5.36668945 4.20950195 -4.52929688 3.46679688 C-3.08389691 2.23163691 -1.54572201 1.10704321 0 0 Z " fill="#F37A2E" transform="translate(469,339)"/>
<path d="M0 0 C0.33 0.99 0.66 1.98 1 3 C-3.95 3 -8.9 3 -14 3 C-14 2.67 -14 2.34 -14 2 C-9.07262981 0.02905192 -5.21979128 -0.1799928 0 0 Z " fill="#FEFDF8" transform="translate(497,264)"/>
<path d="M0 0 C11.90900701 -0.56312292 11.90900701 -0.56312292 16 3 C16.99 4.485 16.99 4.485 18 6 C17.67 6.99 17.34 7.98 17 9 C16.4225 8.05125 15.845 7.1025 15.25 6.125 C11.87470671 1.95262579 7.52460015 1.85103645 2.44921875 1.2265625 C1.64097656 1.15179688 0.83273437 1.07703125 0 1 C0 0.67 0 0.34 0 0 Z " fill="#95C241" transform="translate(486,280)"/>
<path d="M0 0 C1.093125 0.0825 2.18625 0.165 3.3125 0.25 C3.3125 0.91 3.3125 1.57 3.3125 2.25 C-3.3125 5.375 -3.3125 5.375 -6.6875 4.25 C-4.79150483 0.68106792 -4.16790733 0.28256999 0 0 Z " fill="#FBFBF6" transform="translate(436.6875,751.75)"/>
<path d="M0 0 C0.66 0 1.32 0 2 0 C2 0.66 2 1.32 2 2 C2.87398438 2.39832031 2.87398438 2.39832031 3.765625 2.8046875 C6.06174228 4.03302996 7.80356018 5.40314939 9.75 7.125 C10.67039062 7.93324219 10.67039062 7.93324219 11.609375 8.7578125 C12.06828125 9.16773438 12.5271875 9.57765625 13 10 C12.67 10.66 12.34 11.32 12 12 C9.99394062 10.38201759 7.99523205 8.75623702 6 7.125 C5.42765625 6.66480469 4.8553125 6.20460938 4.265625 5.73046875 C2.80601181 4.53150078 1.3986243 3.26958455 0 2 C0 1.34 0 0.68 0 0 Z " fill="#EFEAE5" transform="translate(380,456)"/>
<path d="M0 0 C-2.30266483 1.77128064 -4.62782434 3.41000773 -7.0625 5 C-9.35468555 6.56063697 -11.1618589 7.957621 -13 10 C-13 7 -13 7 -11.125 4.8125 C-9 3 -9 3 -7 3 C-7 2.34 -7 1.68 -7 1 C-4.53721199 -0.231394 -2.7204945 -0.07159196 0 0 Z " fill="#F3F0EB" transform="translate(415,280)"/>
<path d="M0 0 C0.33 0 0.66 0 1 0 C1.29296875 6.0546875 1.29296875 6.0546875 1 8 C0.01 8.66 -0.98 9.32 -2 10 C-3 9 -3 9 -3.25 6.6875 C-2.95799347 3.54842975 -2.11596939 2.28524694 0 0 Z " fill="#FEFDF7" transform="translate(583,647)"/>
<path d="M0 0 C-4.625 4.875 -4.625 4.875 -8 6 C-7.39816251 3.97954558 -6.72693904 1.97888961 -6 0 C-3.50907189 -1.24546405 -2.58919267 -0.7767578 0 0 Z " fill="#FDFCF6" transform="translate(484,796)"/>
<path d="M0 0 C2.475 0.495 2.475 0.495 5 1 C5 3.64 5 6.28 5 9 C4.01 9.495 4.01 9.495 3 10 C2.690625 8.906875 2.38125 7.81375 2.0625 6.6875 C1.41662103 4.44592006 0.7376883 2.2130649 0 0 Z " fill="#FAFAF5" transform="translate(491,775)"/>
<path d="M0 0 C2.60478883 -0.0809313 5.20706653 -0.14045434 7.8125 -0.1875 C8.55048828 -0.21263672 9.28847656 -0.23777344 10.04882812 -0.26367188 C12.20703125 -0.29296875 12.20703125 -0.29296875 16 0 C16.99 0.99 17.98 1.98 19 3 C12.73 2.34 6.46 1.68 0 1 C0 0.67 0 0.34 0 0 Z " fill="#FDFCFA" transform="translate(532,289)"/>
<path d="M0 0 C-1.1446875 0.680625 -1.1446875 0.680625 -2.3125 1.375 C-4.23632814 2.53824492 -6.12941224 3.7529415 -8 5 C-8.99 4.67 -9.98 4.34 -11 4 C-11.33 3.34 -11.66 2.68 -12 2 C-10.37787941 1.47026689 -8.75218416 0.95146893 -7.125 0.4375 C-6.22007812 0.14746094 -5.31515625 -0.14257812 -4.3828125 -0.44140625 C-2 -1 -2 -1 0 0 Z " fill="#EFEAE4" transform="translate(603,502)"/>
<path d="M0 0 C0.33 0 0.66 0 1 0 C1 4.62 1 9.24 1 14 C-1.1803075 10.72953875 -1.68959439 8.8800701 -2 5 C-1.0625 2.125 -1.0625 2.125 0 0 Z " fill="#FEFDFA" transform="translate(398,296)"/>
<path d="M0 0 C0.33 0.66 0.66 1.32 1 2 C0.36474424 3.67889021 -0.30686092 5.34416775 -1 7 C-1.36871088 8.65919896 -1.71281674 10.3247643 -2 12 C-2.99 12 -3.98 12 -5 12 C-4.54738642 10.56068883 -4.08767021 9.12361001 -3.625 7.6875 C-3.24214844 6.48673828 -3.24214844 6.48673828 -2.8515625 5.26171875 C-2 3 -2 3 0 0 Z " fill="#F3811C" transform="translate(523,610)"/>
<path d="M0 0 C0.99 0.33 1.98 0.66 3 1 C4.20568053 5.67201205 4.09382426 10.21496292 4 15 C3.67 15 3.34 15 3 15 C2.01 10.05 1.02 5.1 0 0 Z " fill="#FCFCF9" transform="translate(658,337)"/>
<path d="M0 0 C0.33 0 0.66 0 1 0 C1.66 3.3 2.32 6.6 3 10 C3.99 10.33 4.98 10.66 6 11 C4.02 11.66 2.04 12.32 0 13 C0 8.71 0 4.42 0 0 Z " fill="#7FA838" transform="translate(467,310)"/>
<path d="M0 0 C0.99 0 1.98 0 3 0 C2.01 2.97 1.02 5.94 0 9 C-0.99 8.67 -1.98 8.34 -3 8 C-2.690625 7.236875 -2.38125 6.47375 -2.0625 5.6875 C-1.32106407 3.81210323 -0.63771783 1.91315348 0 0 Z " fill="#F3F6EE" transform="translate(247,610)"/>
<path d="M0 0 C3.3566285 2.23775234 3.57996014 2.93320048 4.6875 6.625 C4.93886719 7.44226563 5.19023437 8.25953125 5.44921875 9.1015625 C5.72185547 10.04128906 5.72185547 10.04128906 6 11 C5.34 11 4.68 11 4 11 C3.32591692 9.73308493 2.66099503 8.46129251 2 7.1875 C1.62875 6.47980469 1.2575 5.77210938 0.875 5.04296875 C0 3 0 3 0 0 Z " fill="#F2EFEB" transform="translate(357,423)"/>
<path d="M0 0 C-0.83144531 0.29003906 -0.83144531 0.29003906 -1.6796875 0.5859375 C-2.40414063 0.84632813 -3.12859375 1.10671875 -3.875 1.375 C-4.59429687 1.63023437 -5.31359375 1.88546875 -6.0546875 2.1484375 C-8.18157994 2.93877783 -8.18157994 2.93877783 -10 5 C-10 2 -10 2 -8 -1 C-4.6857174 -2.43618913 -3.01782854 -1.83225304 0 0 Z " fill="#F1ECE6" transform="translate(344,388)"/>
<path d="M0 0 C0.33 0 0.66 0 1 0 C1.33 2.64 1.66 5.28 2 8 C2.66 8 3.32 8 4 8 C3.67 9.32 3.34 10.64 3 12 C2.01 12 1.02 12 0 12 C0 8.04 0 4.08 0 0 Z " fill="#D4C9BE" transform="translate(565,308)"/>
<path d="M0 0 C0 0.66 0 1.32 0 2 C-0.66 2 -1.32 2 -2 2 C-2 2.66 -2 3.32 -2 4 C-4.31 3.67 -6.62 3.34 -9 3 C-5.73209435 0.82139623 -3.91954654 0 0 0 Z " fill="#EFF2E7" transform="translate(444,814)"/>
<path d="M0 0 C0 2.64 0 5.28 0 8 C-0.99 8.33 -1.98 8.66 -3 9 C-3 6.36 -3 3.72 -3 1 C-1 0 -1 0 0 0 Z " fill="#F59034" transform="translate(512,659)"/>
<path d="M0 0 C0.33 0 0.66 0 1 0 C0.88652381 1.97986082 0.7589065 3.95891598 0.625 5.9375 C0.52058594 7.59072266 0.52058594 7.59072266 0.4140625 9.27734375 C0.27742187 10.17582031 0.14078125 11.07429687 0 12 C-0.99 12.495 -0.99 12.495 -2 13 C-2.05416188 11.39620659 -2.09286638 9.79188594 -2.125 8.1875 C-2.14820313 7.29417969 -2.17140625 6.40085937 -2.1953125 5.48046875 C-2 3 -2 3 0 0 Z " fill="#FDFBFA" transform="translate(238,642)"/>
<path d="M0 0 C0.33 0.66 0.66 1.32 1 2 C-3.455 4.97 -3.455 4.97 -8 8 C-8 7.01 -8 6.02 -8 5 C-6.25 3.61328125 -6.25 3.61328125 -4 2.3125 C-3.2575 1.87550781 -2.515 1.43851563 -1.75 0.98828125 C-1.1725 0.66214844 -0.595 0.33601562 0 0 Z " fill="#2D862A" transform="translate(308,546)"/>
<path d="M0 0 C0.66 0.33 1.32 0.66 2 1 C1.01 1 0.02 1 -1 1 C-0.67 0.67 -0.34 0.34 0 0 Z M-3 2 C-2.34 2.33 -1.68 2.66 -1 3 C-1.99 3.33 -2.98 3.66 -4 4 C-4.33 4.99 -4.66 5.98 -5 7 C-6.65 7.33 -8.3 7.66 -10 8 C-10 7.34 -10 6.68 -10 6 C-4.7265625 2.77734375 -4.7265625 2.77734375 -3 2 Z " fill="#EEE9E4" transform="translate(634,485)"/>
<path d="M0 0 C2.97 0.33 5.94 0.66 9 1 C9 1.66 9 2.32 9 3 C6 4 6 4 2.8125 2.5625 C1.884375 2.046875 0.95625 1.53125 0 1 C0 0.67 0 0.34 0 0 Z " fill="#F9FAF4" transform="translate(333,816)"/>
<path d="M0 0 C0 0.66 0 1.32 0 2 C-2.31 2.66 -4.62 3.32 -7 4 C-7.66 3.34 -8.32 2.68 -9 2 C-5.62902617 0.50178941 -3.79557881 0 0 0 Z " fill="#F2EEE8" transform="translate(591,505)"/>
<path d="M0 0 C0.66 0.66 1.32 1.32 2 2 C1.75033584 6.74361909 0.63709699 7.36290301 -3 11 C-2.01 7.37 -1.02 3.74 0 0 Z " fill="#F0EBE5" transform="translate(659,367)"/>
<path d="M0 0 C-0.33 0.66 -0.66 1.32 -1 2 C-3.31 2 -5.62 2 -8 2 C-8.33 1.34 -8.66 0.68 -9 0 C-5.52176885 -1.15941038 -3.54104422 -0.70820884 0 0 Z " fill="#FEFDFB" transform="translate(387,760)"/>
<path d="M0 0 C0.99 0.33 1.98 0.66 3 1 C3.33 2.98 3.66 4.96 4 7 C3.01 6.67 2.02 6.34 1 6 C0.67 4.02 0.34 2.04 0 0 Z " fill="#EFF3E9" transform="translate(239,714)"/>
<path d="M0 0 C0.33 1.32 0.66 2.64 1 4 C-0.9375 6.75 -0.9375 6.75 -3 9 C-3.66 8.67 -4.32 8.34 -5 8 C-3.35 5.36 -1.7 2.72 0 0 Z " fill="#FCC74D" transform="translate(585,230)"/>
</svg>
