<svg width="2048" height="2048" viewBox="0 0 2048 2048" fill="none" xmlns="http://www.w3.org/2000/svg">
  <rect width="2048" height="2048" fill="#FF6B6B"/>
  <circle cx="1024" cy="1024" r="500" fill="white" stroke="#FF6B6B" stroke-width="20"/>
  <path d="M1024 650C1177.5 650 1302 774.5 1302 928C1302 1081.5 1177.5 1206 1024 1206C870.5 1206 746 1081.5 746 928C746 774.5 870.5 650 1024 650Z" fill="#FF6B6B"/>
  <path d="M1024 1206V1374" stroke="#FF6B6B" stroke-width="50" stroke-linecap="round"/>
  <path d="M874 1290L1174 1290" stroke="#FF6B6B" stroke-width="50" stroke-linecap="round"/>
  <path d="M1024 650V482" stroke="#FF6B6B" stroke-width="50" stroke-linecap="round"/>
  <path d="M874 566L1174 566" stroke="#FF6B6B" stroke-width="50" stroke-linecap="round"/>
  <path d="M1302 928H1470" stroke="#FF6B6B" stroke-width="50" stroke-linecap="round"/>
  <path d="M1386 778L1386 1078" stroke="#FF6B6B" stroke-width="50" stroke-linecap="round"/>
  <path d="M746 928H578" stroke="#FF6B6B" stroke-width="50" stroke-linecap="round"/>
  <path d="M662 778L662 1078" stroke="#FF6B6B" stroke-width="50" stroke-linecap="round"/>
  <text x="1024" y="1600" font-family="Arial, sans-serif" font-size="120" font-weight="bold" fill="white" text-anchor="middle">Calorie Counter</text>
  <text x="1024" y="1700" font-family="Arial, sans-serif" font-size="80" fill="white" text-anchor="middle">For Indian Foods</text>
</svg>